<?xml version="1.0" encoding="utf-8"?>
<!-- Generator: Adobe Illustrator 19.0.0, SVG Export Plug-In . SVG Version: 6.00 Build 0)  -->
<svg version="1.1" id="svg99" xmlns="http://www.w3.org/2000/svg" xmlns:xlink="http://www.w3.org/1999/xlink" x="0px" y="0px"
	 viewBox="-213.2 616.8 167.9 161.8" style="enable-background:new -213.2 616.8 167.9 161.8;" xml:space="preserve">
<style type="text/css">
	.st0{fill:#E5E4E5;}
	.st1{fill:#BE3B33;}
</style>
<g>
	<path class="st0" d="M-99.9,656.1c0,0-14.7-13.3-29.3-16.9c-14.5,3.7-29.2,16.9-29.2,16.9s-3.6,40.3,29.3,58.6
		C-96.2,696.4-99.9,656.1-99.9,656.1z M-129.1,710c-26.2-15.6-23.3-50.2-23.3-50.2s11.7-11.3,23.3-14.4
		c11.7,3.1,23.3,14.4,23.3,14.4S-102.9,694.3-129.1,710z M-104.9,678c-1.8,6.7-4.5,12.9-8.1,18.2c-0.4,0.6-0.9,1.3-1.3,1.8
		c12.1-17.5,10.3-39.4,10.3-39.4s-12.5-12-25-15.3c-12.5,3.4-25,15.4-25,15.4s-1.8,21.7,10.3,39.4c-0.4-0.6-0.9-1.2-1.3-1.8
		c-3.6-5.2-6.3-11.4-8.1-18.2c-2.5-9.5-2.5-17.6-2.2-20.4c3.1-2.7,14.9-12.1,26.4-15.3c11.7,3.1,23.3,12.6,26.4,15.3
		C-102.6,660.4-102.5,668.5-104.9,678z"/>
	<path class="st0" d="M-151,643.6l-5.1,3.3l0.5,3.7c5.6-4.3,15.4-10.9,25.3-13.4l0.6-5.8l0.6,5.8c9.9,2.5,19.7,9.1,25.3,13.4
		l0.5-3.7l-4.7-3.3l5.2,2.2l2.6-18.3l-9.7,6.1l6,3.2l-3.5-0.5l-4.3,4.3l-9.1-4.5l-5.2-8.4l-1.8,0.3l1.3-1.1l1.3-1.1l0.7-0.6l-5-8.3
		l-5,8.3l2,1.7l1.3,1.1l-1.8-0.3l-5.2,8.4l-9.1,4.5l-4.3-4.3l-3.5,0.5l6-3.2l-9.7-6.1l2.6,18.3L-151,643.6z"/>
	<path class="st1" d="M-120.1,672.6c-1.8-0.4-2.8,1.6-3,1.9c-0.1,0.2-0.5,0.4-0.7,0.5c-0.2,0.1-1,0.4-1.8-0.4c-0.6-0.6-1-1.5-1.4-2
		c-0.4-0.6-1.6-2.1-1.7-2.8c-0.1-0.5-0.1-1.3-0.1-1.3l1.8,2.9c0,0,1.6-1.6,1.1-5.8s-2.8-5.6-3.1-5.8c-0.3-0.2-0.7-1-1-1.3
		c-0.1-0.1-0.3-0.2-0.5-0.2c-0.1-0.2-0.8-1.3-1-1.6c-0.1,0.1-0.2,0.4-0.3,0.7l-0.6-0.7c0,0-0.4,0.3-0.4,0.8
		c-0.1,0.4,0.4,1.2,0.4,1.2l-1.7,1.1c0,0-0.7,0.8-0.7,0.9c-0.1,0.1-1.1,0.8-1.6,1c-0.4,0.2-0.6,0.4-0.7,0.7s0,0.9,0,0.9l0.5,0.1
		c0,0,0.1,0.3,0.2,0.4c0.1,0.1,0.4,0.3,0.7,0.2c0.2,0,1-0.7,1-0.7l1.1-0.2c0,0,0.5,0.4,0.8,0.6c0.3,0.2,1,0.1,1,0.1s-0.7,0.7-2,1.9
		c-1.3,1.3-2.2,3.9-2.2,3.9c0,0.8,0.1,1.3,0.1,1.3l-0.4-1.6c-0.4-0.2-1-0.7-1.2-0.9c-0.4-0.4-0.8-0.4-0.9-0.4s-2.9,0.8-3.3,1
		c-0.4,0.2-0.9,0.8-1,1c-0.1,0.2-0.7,1.6-0.7,1.6l0.3,0.2l0.3,1.4c0,0,0.5-0.3,0.8-0.4c0.3-0.1,0.7-0.7,0.7-0.7l-0.3-0.7
		c0,0,0.2-0.3,0.2-0.5c0.1-0.1,0.1-0.5,0.1-0.5l2.7-0.5l1.3,1.6c0,0-3,1.9-3.1,2c-0.1,0.1-0.2,0.7-0.1,1c0.1,0.3,0.4,3.4,0.4,3.6
		c0.2,0.4,1.7,1,1.7,1l1,1.2c0,0,0.2-0.2,0.4-0.9c0.2-0.7,0.1-1.2,0.1-1.2l-0.7-0.4c0,0-0.1-0.3-0.1-0.4s-0.9-0.1-0.9-0.1l-0.4-2.8
		c0,0,0.6-0.4,1.3-0.6c0.6-0.1,3.3-0.1,3.3-0.1c0.6,0,1.5,0.1,1.5,0.1l-1.3,0.3c0.3,0.6,0.8,1.6,1.1,2.1c0.4,0.7,2.3,1.9,2.3,1.9
		s-2.2,0.9-2.5,2.2s1.2,3,1.2,3.2c0,0.2-0.4,0.5-0.5,0.6c-0.1,0.1-2.2,1.2-3,1.6c-0.8,0.4-0.7,1.9-0.7,1.9l0.2,0.2l0.4,0.7
		c0,0,0.1,0.2,0.7,0c0.6-0.2,0.7-0.5,0.7-0.5l-0.1-0.7l0.1-0.2l-0.2-0.6c0,0,1.4-0.6,2.5-1c1-0.4,2.4-1,2.5-1.5
		c0.2-0.5-0.7-1.6-0.7-1.6h1.6c-0.2-1.2,0.1-2.2,0.1-2.2s0.1,1,0.5,2.2c0,0,0.4,0.9,1,1.6c0.6,0.7,2,1.7,2,1.7s0.3,1.3-0.1,2.9
		c-0.4,1.6-1.9,2.7-1.9,2.7l-0.2,1.1c0,0,0.1,0.5,0.8,0.4c0.7-0.1,1.3-0.5,1.3-0.5l-0.2-0.7l0.2-0.3l-0.1-0.5c0,0,0.2-0.1,0.7-0.5
		c0.4-0.4,0.5-1.4,0.8-2.3c0.3-0.9,1.7-2.2,1.9-2.7c0.1-0.6-1-1-1.6-2.5c-0.6-1.3,1-3.7,1.3-4.7c0.2-0.9-0.5-2.2-0.5-2.2
		s0.4-0.6,0.8-0.6c3,0.1,1.5,3.2,1.5,3.9c0.1,1.3,1.1,2.7,1,1.6c-0.1-1,0.5-1.6,1.2-4.2C-117.7,674.5-118.3,673-120.1,672.6z"/>
</g>
<g>
	<path class="st0" d="M-95.9,777.3c0,0.1,0,0.3-0.1,0.4c-0.1,0.1-0.4,0.1-0.9,0.1c-0.6,0-0.9,0-1-0.1c-0.1-0.1-0.1-0.6-0.1-1.6v-1.5
		c0-1.2,0-1.3,0-1.6s0.1-0.4,0.3-0.4c0.1,0,0.1,0,0.3,0c0.1,0,0.1-0.1,0.1-0.1s0,0-0.1,0c-0.3,0-1,0-1.2,0c-0.3,0-0.7,0-1.2,0
		c-0.1,0-0.1-0.1-0.1,0s0,0.1,0.1,0.1c0.1,0,0.3,0,0.3,0c0.1,0.1,0.3,0.1,0.3,0.4c0,0.3,0,0.4,0,1.6v1.3c0,0.7,0,1.3,0,1.6
		c-0.1,0.3-0.1,0.4-0.3,0.4c-0.1,0-0.1,0-0.3,0c-0.1,0-0.1,0.1-0.1,0.1c0,0.1,0,0.1,0.1,0.1c0.1,0,0.4,0,0.6,0c0.1,0,0.3,0,0.4,0
		c0.3,0,0.6,0,1,0c0.4,0,0.9,0,1.5,0c0.3,0,0.4,0,0.4-0.1c0.1-0.1,0.1-0.7,0.1-0.9v-0.1C-95.9,777.1-95.9,777.3-95.9,777.3z"/>
	<path class="st0" d="M-101.5,777.3c0,0.3-0.1,0.4-0.3,0.6c-0.1,0.1-0.6,0.1-0.7,0.1c-0.7,0-1,0-1-0.6c0-0.3,0-0.9,0-1.2v-0.6
		c0-0.1,0-0.1,0-0.1c0.3,0,1.2,0,1.3,0c0.3,0,0.4,0.1,0.4,0.3c0,0.1,0,0.1,0,0.3c0.1,0,0.1-0.1,0.1-0.1c0-0.1,0-0.4,0-0.6
		c0-0.4,0-0.6,0-0.6c0-0.1,0-0.1,0-0.1l-0.1,0.1c-0.1,0.1-0.3,0.1-0.4,0.1c-0.3,0-1.3,0-1.5,0v-0.1v-1.9c0.3,0,1.2,0,1.3,0
		c0.4,0,0.6,0.1,0.6,0.3c0,0.1,0,0.3,0,0.3c0,0.1,0,0.1,0,0.1c0.1,0,0.1-0.1,0.1-0.1s0-0.3,0-0.4c0-0.3,0-0.4,0-0.4h-0.1
		c0,0-0.1,0-0.3,0c-0.1,0-1.9,0-2.2,0c-0.3,0-0.7,0-1.2,0c-0.1,0-0.1,0-0.1,0c0,0.1,0,0.1,0.1,0.1s0.3,0,0.3,0
		c0.1,0.1,0.4,0.1,0.4,0.4c0,0.3,0,0.4,0,1.6v1.2c0,0.7,0,1.3,0,1.6c-0.1,0.3-0.1,0.4-0.3,0.4c-0.1,0-0.1,0-0.3,0
		c-0.1,0-0.1,0.1-0.1,0.1c0,0.1,0,0.1,0.1,0.1c0.1,0,0.4,0,0.6,0c0.1,0,0.3,0,0.4,0c0.1,0,0.4,0,0.9,0s0.9,0,1.5,0
		c0.3,0,0.4,0,0.4-0.1c0.1-0.1,0.1-0.7,0.1-0.9v-0.1C-101.5,777.1-101.5,777.1-101.5,777.3z"/>
	<path class="st0" d="M-106.9,777.3c0,0.3-0.1,0.4-0.3,0.6c-0.1,0.1-0.6,0.1-0.7,0.1c-0.7,0-1,0-1-0.6c0-0.3,0-0.9,0-1.2v-0.6
		c0-0.1,0-0.1,0-0.1c0.3,0,1.2,0,1.3,0c0.3,0,0.4,0.1,0.4,0.3c0,0.1,0,0.1,0,0.3c0.1,0,0.1-0.1,0.1-0.1c0-0.1,0-0.4,0-0.6
		c0-0.4,0-0.6,0-0.6c0-0.1,0-0.1,0-0.1l-0.1,0.1c-0.1,0.1-0.3,0.1-0.4,0.1c-0.3,0-1.3,0-1.5,0v-0.1v-1.9c0.3,0,1.2,0,1.3,0
		c0.4,0,0.6,0.1,0.6,0.3c0,0.1,0,0.3,0,0.3c0,0.1,0,0.1,0,0.1c0.1,0,0.1-0.1,0.1-0.1s0-0.3,0-0.4c0-0.3,0-0.4,0-0.4h-0.1
		c0,0-0.1,0-0.3,0c-0.1,0-1.9,0-2.2,0c-0.3,0-0.7,0-1.2,0c-0.1,0-0.1,0-0.1,0c0,0.1,0,0.1,0.1,0.1c0.1,0,0.3,0,0.3,0
		c0.1,0.1,0.4,0.1,0.4,0.4c0,0.3,0,0.4,0,1.6v1.2c0,0.7,0,1.3,0,1.6c-0.1,0.3-0.1,0.4-0.3,0.4c-0.1,0-0.1,0-0.3,0
		c-0.1,0-0.1,0.1-0.1,0.1c0,0.1,0,0.1,0.1,0.1c0.1,0,0.4,0,0.6,0c0.1,0,0.3,0,0.4,0c0.1,0,0.4,0,0.9,0c0.4,0,0.9,0,1.5,0
		c0.3,0,0.4,0,0.4-0.1c0.1-0.1,0.1-0.7,0.1-0.9v-0.1C-106.9,777.1-106.9,777.1-106.9,777.3z"/>
	<path class="st0" d="M-112.8,772.6c-0.3,0-2.1,0-2.3,0c-0.3,0-0.7,0-1.2,0c-0.1,0-0.1,0-0.1,0c0,0.1,0.1,0.1,0.1,0.1
		c0.1,0,0.3,0,0.3,0c0.1,0.1,0.3,0.1,0.3,0.4c0,0.3,0,0.4,0,1.6v1.3c0,0.7,0,1.3,0,1.6c-0.1,0.3-0.1,0.4-0.3,0.4c-0.1,0-0.1,0-0.3,0
		c-0.1,0-0.1,0.1-0.1,0.1c0,0.1,0,0.1,0.1,0.1c0.3,0,0.9,0,1,0c0.3,0,0.9,0,1.3,0c0.1,0,0.1-0.1,0.1-0.1c0-0.1,0-0.1-0.1-0.1
		c-0.1,0-0.3,0-0.4,0c-0.1,0-0.3-0.1-0.3-0.4c0-0.3,0-0.9,0-1.6v-1c0.1,0,1.5,0,1.6,0c0.3,0,0.4,0.1,0.4,0.3c0,0.1,0,0.1,0,0.3
		s0,0.1,0,0.1c0.1,0,0.1-0.1,0.1-0.1c0-0.1,0-0.4,0-0.6s0-0.4,0-0.4c-0.1,0-0.1,0.1-0.1,0.1c0,0.1-0.1,0.1-0.3,0.1c0,0-0.1,0-0.3,0
		h-1.5V773c0-0.1,0-0.1,0-0.1h1.6c0.3,0,0.4,0.1,0.4,0.3c0,0.1,0,0.3,0,0.3c0,0.1,0,0.1,0.1,0.1c0.1,0,0.1-0.1,0.1-0.1s0-0.4,0-0.6
		c0-0.1,0-0.3,0-0.3h-0.1C-112.5,772.6-112.6,772.6-112.8,772.6z"/>
	<path class="st0" d="M-121.4,772.4c-0.1,0-0.4,0-0.7,0c-0.1,0-0.1,0-0.1,0c0,0.1,0.1,0.1,0.1,0.1c0.1,0,0.1,0.1,0.1,0.1
		c0,0.1,0,0.3-0.1,0.4c-0.1,0.1-1,1.9-1.2,2.1c-0.1-0.1-1.2-1.9-1.3-2.2c-0.1-0.1-0.1-0.3-0.1-0.3c0-0.1,0.1-0.1,0.1-0.1
		c0.1-0.1,0.1-0.1,0.1-0.1h-0.1c-0.3,0-0.7,0-0.9,0c-0.3,0-0.9,0-1,0c-0.1,0-0.1,0-0.1,0c0,0.1,0.1,0.1,0.1,0.1s0.1,0.1,0.3,0.1
		c0.3,0.1,0.4,0.3,0.6,0.6c0.3,0.4,1.5,2.1,1.5,2.2c0.1,0.3,0.1,0.4,0.1,0.9v0.4c0,0.1,0,0.4,0,0.7s-0.1,0.4-0.3,0.4
		c-0.1,0-0.1,0-0.3,0c-0.1,0-0.1,0.1-0.1,0.1c0,0.1,0,0.1,0.1,0.1c0.3,0,0.9,0,1,0c0.3,0,0.9,0,1.3,0c0.1,0,0.1-0.1,0.1-0.1
		c0-0.1,0-0.1-0.1-0.1c-0.1,0-0.3,0-0.4,0c-0.1,0-0.3-0.1-0.3-0.4s0-0.6,0-0.7v-0.6c0-0.1,0-0.4,0.1-0.7c0.1-0.3,1.3-2.2,1.6-2.5
		c0.1-0.1,0.3-0.1,0.4-0.3c0-0.1,0.1-0.1,0.3-0.1c0.1,0,0.1-0.1,0.1-0.1s0,0-0.1,0C-120.7,772.4-121.3,772.4-121.4,772.4z"/>
	<path class="st0" d="M-126,778.2c0,0,0,0-0.1,0c-0.1,0-0.4,0-0.9-0.4c-0.4-0.4-1-1.2-1.8-2.1c0.9-0.7,1.2-1.2,1.2-1.8
		c0-0.4-0.3-0.9-0.6-1c-0.4-0.3-1-0.3-1.5-0.3c-0.3,0-1,0-1.3,0c-0.1,0-0.6,0-1,0c-0.1,0-0.1-0.1-0.1,0s0,0.1,0.1,0.1
		c0.1,0,0.3,0,0.3,0c0.1,0.1,0.4,0.1,0.4,0.4c0,0.3,0,0.4,0,1.6v1.5c0,0.7,0,1.3,0,1.6c-0.1,0.3-0.1,0.4-0.3,0.4c-0.1,0-0.1,0-0.3,0
		c-0.1,0-0.1,0.1-0.1,0.1c0,0.1,0,0.1,0.1,0.1c0.3,0,0.9,0,1,0c0.1,0,0.9,0,1.3,0c0.1,0,0.1-0.1,0.1-0.1c0-0.1-0.1-0.1-0.1-0.1
		c-0.1,0-0.3,0-0.4,0c-0.3,0-0.3-0.1-0.3-0.4c0-0.3,0-0.9,0-1.6v-0.1h0.7h0.1c0.1,0.1,0.4,0.6,0.7,1c0.4,0.6,0.7,1,1,1.2
		c0.1,0.1,0.4,0.1,0.9,0.1h0.7c0.1,0,0.1-0.1,0.1-0.1C-125.8,778.2-126,778.2-126,778.2z M-129.1,775.4c-0.1,0.1-0.3,0.1-0.6,0.1
		c-0.2,0-0.3,0-0.4,0l0-0.1V773c0-0.1,0-0.1,0-0.1s0.3,0,0.4,0c0.4,0,1.2,0.3,1.2,1.3C-128.5,774.9-128.8,775.2-129.1,775.4z"/>
	<path class="st0" d="M-134.5,772.4c-0.1,0-0.6,0-1,0c-0.1,0-0.1,0-0.1,0c0,0.1,0,0.1,0.1,0.1c0.1,0,0.3,0,0.3,0
		c0.1,0.1,0.3,0.1,0.3,0.4c0,0.3,0,0.4,0,1.6v1c0,0.9,0,1.5-0.4,1.9c-0.3,0.3-0.7,0.4-1,0.4c-0.3,0-0.7,0-1-0.3
		c-0.4-0.3-0.6-0.7-0.6-1.9v-1c0-1.2,0-1.3,0-1.6s0.1-0.4,0.3-0.4c0.1,0,0.1,0,0.3,0c0.1,0,0.1-0.1,0.1-0.1s0,0-0.1,0
		c-0.3,0-0.9,0-1,0c-0.1,0-0.7,0-1.2,0c-0.1,0-0.1,0-0.1,0c0,0.1,0,0.1,0.1,0.1c0.1,0,0.3,0,0.3,0c0.1,0.1,0.3,0.1,0.3,0.4
		c0,0.3,0,0.4,0,1.6v1c0,1.2,0.2,1.4,0.6,2.1c0.6,0.5,1.3,0.6,1.8,0.6c0.6,0,1.2-0.1,1.8-0.6c0.6-0.6,0.7-1.5,0.7-2.3v-0.9
		c0-1.2,0-1.3,0-1.6s0.1-0.4,0.3-0.4c0.1,0,0.1,0,0.3,0c0.1,0,0.1-0.1,0.1-0.1s0,0-0.1,0C-133.9,772.4-134.3,772.4-134.5,772.4z"/>
	<path class="st0" d="M-140.4,778.2c0,0-0.1,0-0.3,0c-0.1,0-0.3-0.1-0.4-0.3c-0.1-0.3-1.5-2.3-1.8-2.8l1-1.8
		c0.3-0.3,0.4-0.6,0.6-0.6c0.1,0,0.1,0,0.3,0c0.1,0,0.1-0.1,0.1-0.1s0,0-0.1,0c-0.3,0-0.6,0-0.7,0c-0.1,0-0.6,0-0.9,0
		c-0.1,0-0.1-0.1-0.1,0s0.1,0.1,0.1,0.1c0.1,0,0.1,0,0.3,0c0.1,0,0.1,0.1,0.1,0.1c0,0.1-0.1,0.1-0.1,0.3c-0.1,0.3-0.7,1.3-1,1.6
		c-0.3-0.4-0.7-1-1-1.6c-0.1-0.1-0.1-0.3-0.1-0.3c0-0.1,0.1-0.1,0.1-0.1h0.1c0.1,0,0.1-0.1,0.1-0.1s0,0-0.1,0c-0.3,0-0.7,0-0.9,0
		c-0.3,0-1,0-1.2,0c-0.1,0-0.1,0-0.1,0c0,0.1,0.1,0.1,0.1,0.1s0.1,0,0.3,0c0.3,0.1,0.4,0.3,0.6,0.6l1.5,2.2l-1.6,2.1
		c-0.3,0.4-0.3,0.6-0.6,0.6c-0.1,0-0.3,0-0.3,0c-0.1,0-0.1,0.1-0.1,0.1s0,0,0.1,0h0.1c0.1,0,0.6,0,0.7,0c0.1,0,0.7,0,0.7,0h0.1
		c0.1,0,0.1,0,0.1,0c0-0.1-0.1-0.1-0.1-0.1h-0.1l-0.1-0.1c0,0,0-0.1,0.1-0.3l1.2-1.8c0.4,0.6,0.9,1.3,1.3,2.1c0.1,0.1,0,0.1,0,0.1
		c-0.1,0-0.1,0.1-0.1,0.1c0,0.1,0.1,0.1,0.3,0.1c0.6,0,1.3,0,1.5,0h0.3c0.1,0,0.1-0.1,0.1-0.1C-140.2,778.2-140.4,778.2-140.4,778.2
		z"/>
	<path class="st0" d="M-148.1,772.4c-0.1,0-0.6,0-1,0c-0.1,0-0.1,0-0.1,0c0,0.1,0,0.1,0.1,0.1c0.1,0,0.3,0,0.3,0
		c0.1,0.1,0.3,0.1,0.3,0.4c0,0.3,0,0.4,0,1.6v1c0,0.9,0,1.5-0.4,1.9c-0.3,0.3-0.7,0.4-1,0.4c-0.3,0-0.7,0-1-0.3
		c-0.4-0.3-0.6-0.7-0.6-1.9v-1c0-1.2,0-1.3,0-1.6s0.1-0.4,0.3-0.4c0.1,0,0.1,0,0.3,0c0.1,0,0.1-0.1,0.1-0.1s0,0-0.1,0
		c-0.3,0-0.9,0-1,0c-0.1,0-0.7,0-1.2,0c-0.1,0-0.1,0-0.1,0c0,0.1,0,0.1,0.1,0.1c0.1,0,0.3,0,0.3,0c0.1,0.1,0.3,0.1,0.3,0.4
		c0,0.3,0,0.4,0,1.6l-0.1,1c0,1.2,0.3,1.8,0.7,2.1c0.4,0.6,1.3,0.6,1.8,0.6c0.6,0,1.2-0.1,1.8-0.6c0.6-0.6,0.7-1.5,0.7-2.3v-0.9
		c0-1.2,0-1.3,0-1.6s0.1-0.4,0.3-0.4c0.1,0,0.1,0,0.3,0c0.1,0,0.1-0.1,0.1-0.1s0,0-0.1,0C-147.5,772.4-148,772.4-148.1,772.4z"/>
	<path class="st0" d="M-154.1,776.8c-0.1,0.1-0.1,0.4-0.3,0.6c-0.1,0.3-0.6,0.3-1,0.3c-0.7,0-1,0-1.2-0.1c-0.1-0.1-0.1-0.7-0.1-1.9
		l-0.1-1.6c0-1.3,0-1.6,0-1.9c0-0.4,0-0.6,0.3-0.6c0,0,0.1,0,0.3,0c0.1,0,0.1-0.1,0.1-0.1c0-0.1,0-0.1-0.1-0.1c-0.3,0-1,0-1.2,0
		c-0.1,0-0.7,0-1.2,0c-0.1,0-0.1,0.1-0.1,0.1c0,0.1,0,0.1,0.1,0.1c0.1,0,0.3,0,0.3,0c0.3,0.1,0.4,0.3,0.4,0.6s0,0.6,0,1.9v1.6
		c0,0.7,0,1.5,0,1.9c0,0.1-0.1,0.4-0.3,0.4c0,0-0.1,0-0.3,0c-0.1,0-0.1,0-0.1,0c0,0.1,0,0.1,0.1,0.1c0.1,0,0.4,0,0.6,0
		c0.3,0,0.4,0,0.6,0c0.4,0,0.7,0,1.2,0c0.3,0,0.9,0,1.5,0c0.4,0,0.6-0.1,0.6-0.3c0.1-0.3,0.1-0.9,0.1-1s0-0.1,0-0.1
		C-154.1,776.7-154.1,776.7-154.1,776.8z"/>
	<polygon class="st0" points="-59,774.6 -87.9,774.6 -87.9,776.1 -45.3,776.1 	"/>
	<polygon class="st0" points="-213.2,776.1 -167.6,776.1 -167.6,774.6 -199.5,774.6 	"/>
</g>
<g>
	<path class="st0" d="M-67.2,744.9c-0.3,0-0.5,0-0.5,0.2c0,0.1,0.2,0.2,0.4,0.2c0.3,0,0.7,0,0.9,0.1c0.7,0.2,0.9,0.5,1,1.2
		c0,0.7,0,1.3,0,4.6l0.2,3.7c0,2,0,3.7-0.1,4.6c-0.1,0.6-0.2,1-0.7,1.1c-0.2,0.1-0.5,0.1-0.8,0.1s-0.4,0.1-0.4,0.2
		c0,0.1,0.1,0.2,0.4,0.2c0.8,0,2.3-0.1,2.7-0.1c0.3,0,2.2,0.1,3.5,0.1c0.3,0,0.5,0,0.5-0.2c0-0.1-0.1-0.2-0.3-0.2
		c-0.3,0-0.8,0-1.1-0.1c-0.7-0.1-0.8-0.5-0.9-1.1c-0.1-0.9-0.1-2.6-0.1-4.6v-0.3c0-0.1,0.1-0.2,0.2-0.2l2,0.1c0.1,0,0.3,0.1,0.4,0.2
		c0.3,0.3,1.2,1.7,2.1,2.9c1.2,1.7,2,2.7,3,3.2c0.5,0.3,1.2,0.4,2.4,0.4h2.1c0.2,0,0.4,0,0.4-0.2c0-0.1-0.1-0.2-0.3-0.2
		c-0.1,0-0.3,0-0.5-0.1c-0.4-0.1-1.2-0.2-2.4-1.4c-1.3-1.3-2.9-3.3-4.9-5.7c2.2-1.8,3.1-3.2,3.1-4.8c0-1.5-1-2.6-1.6-3
		c-1.2-0.8-2.8-0.9-4.2-0.9c-0.7,0-2.7,0.1-3.5,0.1C-64.6,745-66,744.9-67.2,744.9z M-62.6,752.9v-6.4c0-0.2,0-0.2,0.2-0.3
		c0.2-0.1,0.7-0.1,1.3-0.1c1.3,0,3.4,0.7,3.4,3.8c0,1.8-0.7,2.7-1.4,3.2c-0.4,0.3-0.7,0.4-1.6,0.4c-0.6,0-1.2,0-1.7-0.2
		C-62.5,753.2-62.6,753.1-62.6,752.9L-62.6,752.9z"/>
	<path class="st0" d="M-86.3,760.9c-0.2,0-0.3,0.1-0.3,0.2c0,0.1,0.1,0.2,0.4,0.2c1.2,0,2.4-0.1,2.6-0.1c0.7,0,1.8,0.1,2.5,0.1
		c0.3,0,0.4,0,0.4-0.2c0-0.1,0-0.2-0.3-0.2h-0.3c-0.7,0-0.9-0.2-0.9-0.6c0-0.2,0.1-0.8,0.3-1.3l1.2-2.9c0-0.2,0.1-0.2,0.2-0.2v-0.1
		h5.3c0.1,0,0.1,0.1,0.2,0.2l1.7,4.3c0.1,0.3,0,0.5-0.2,0.5s-0.3,0.1-0.3,0.2c0,0.2,0.3,0.2,0.7,0.2c1.9,0.1,3.5,0.1,4.3,0.1
		c0.9,0,1,0,1-0.2c0-0.1-0.1-0.2-0.3-0.2s-0.5,0-0.8-0.1c-0.4-0.1-1-0.3-1.9-2.3c-1.4-3.3-5.2-12.1-5.7-13.3
		c-0.3-0.5-0.4-0.7-0.7-0.7c-0.3,0-0.4,0.3-0.7,0.9l-5.8,13.6c-0.5,1.1-0.9,1.7-1.9,1.9C-85.8,760.9-86.1,760.9-86.3,760.9z
		 M-80.2,754.6l2.2-5.5c0-0.1,0-0.2,0.1-0.2c0,0,0.1,0.1,0.1,0.2l2.1,5.5c0,0,0,0.1-0.1,0.1v0.1h-4.3
		C-80.2,754.8-80.3,754.7-80.2,754.6z"/>
	<path class="st0" d="M-101.7,758.9c2.3,2,5.2,2.7,8.5,2.7c1.7,0,3.6-0.2,4.6-0.6c0.5-0.1,0.6-0.3,0.7-0.7c0.3-0.9,0.6-3.1,0.6-3.4
		c0-0.2,0-0.4-0.2-0.4s-0.2,0.1-0.3,0.5c-0.1,0.5-0.5,1.2-0.9,1.7c-1.1,1.1-2.4,1.4-4.7,1.4c-3.4,0-8-3-8-9c0-2.5,0.4-4.9,2.3-6.6
		c1.1-1,2.6-1.6,4.8-1.6c2.4,0,4.4,0.7,5.2,1.6c0.6,0.6,1,1.5,1,2.3c0,0.4,0.1,0.6,0.3,0.6s0.3-0.2,0.3-0.6c0.1-0.5,0-1.9,0.1-2.7
		c0-0.9,0.1-1.2,0.1-1.4c0-0.1-0.1-0.3-0.4-0.3c-0.7,0-1.5-0.3-2.5-0.4c-1.2-0.2-2.1-0.3-3.7-0.3c-3.8,0-6.2,1-8,2.7
		c-2.5,2.3-3,5.3-3,7C-104.9,753.9-104.2,756.7-101.7,758.9z"/>
	<path class="st0" d="M-113.6,761.3c1,0,1.2-0.1,1.2-0.3s-0.1-0.2-0.3-0.2c-0.3,0-0.7,0-1.1-0.1c-0.5-0.2-1.2-0.5-2.2-2.8
		c-1.6-3.8-5.7-14.2-6.3-15.6c-0.2-0.6-0.4-0.8-0.6-0.8s-0.4,0.3-0.7,1l-6.4,16c-0.5,1.3-1,2.1-2.2,2.3c-0.2,0.1-0.6,0.1-0.8,0.1
		c-0.2,0-0.3,0-0.3,0.2s0.2,0.3,0.5,0.3c1.3,0,2.7-0.1,3-0.1c0.8,0,1.9,0.1,2.7,0.1c0.2,0,0.4-0.1,0.4-0.3c0-0.1-0.1-0.2-0.4-0.2
		h-0.4c-0.8,0-1-0.3-1-0.8c0-0.4,0.1-1,0.4-1.6l1.4-3.6c0-0.1,0.1-0.2,0.2-0.2l5.6-0.1c0.2,0,0.2,0.1,0.3,0.2l2,5.4
		c0.2,0.3,0,0.5-0.2,0.6c-0.3,0-0.4,0-0.4,0.2s0.3,0.2,0.8,0.2C-116.4,761.3-114.5,761.3-113.6,761.3z M-121.3,753.4h-4.7
		c-0.1,0-0.1-0.1-0.1-0.2l2.3-6.3c0.1-0.1,0.1-0.2,0.2-0.2c0,0,0.1,0.1,0.1,0.2l2.3,6.3C-121.1,753.3-121.2,753.4-121.3,753.4z"/>
	<path class="st0" d="M-143.6,761c-0.3,0-0.8,0-1.1-0.1c-0.7-0.1-0.8-0.5-0.9-1.1c-0.1-0.9-0.1-2.6-0.1-4.6v-8.7l2.8,0.1
		c2,0,2.5,0.6,2.6,1.2v0.2c0.1,0.3,0.1,0.4,0.3,0.4c0.1,0,0.2-0.2,0.2-0.4c0-0.5,0.1-2.1,0.1-2.6c0-0.4,0-0.5-0.2-0.5
		c-0.1,0-0.2,0-0.6,0.1c-0.3,0-0.8,0.1-1.5,0.1h-9.1c-0.7,0-1.5,0-2.2-0.1c-0.6-0.1-0.8-0.3-1-0.3c-0.2,0-0.2,0.1-0.3,0.4
		c-0.1,0.2-0.5,2.2-0.5,2.6c0,0.3,0,0.4,0.2,0.4s0.3-0.1,0.3-0.3c0.1-0.1,0.2-0.4,0.4-0.7c0.4-0.5,0.9-0.7,2.2-0.7l3.3-0.1h0.2v8.9
		c0,2,0,3.7-0.1,4.6c-0.1,0.6-0.2,1-0.7,1.1c-0.2,0.1-0.5,0.1-0.8,0.1s-0.4,0.1-0.4,0.2c0,0.1,0.1,0.2,0.4,0.2
		c0.9,0,2.4-0.1,2.9-0.1c0.6,0,2.1,0.1,3.6,0.1c0.2,0,0.4,0,0.4-0.2C-143.2,761.1-143.3,761-143.6,761z"/>
	<path class="st0" d="M-166.6,755c2.3,2.2,5.1,4.9,6.5,6.2c0.2,0.3,0.5,0.5,0.9,0.5c0.2,0,0.4-0.2,0.4-0.7v-13.6
		c0-1.2,0.5-1.6,1.1-1.8c0.3-0.1,0.5-0.1,0.7-0.1c0.3,0,0.4-0.1,0.4-0.2c0-0.2-0.2-0.2-0.5-0.2c-1.1,0-1.9,0.1-2.2,0.1
		c-0.4,0-1.6-0.1-2.8-0.1c-0.4,0-0.6,0-0.6,0.2c0,0.1,0.1,0.2,0.4,0.2s0.9,0,1.2,0.1c0.6,0.2,0.8,0.6,0.8,1.9l0.2,9.6h-0.1
		c-0.3-0.4-3.3-3.4-4.8-4.9c-3.3-3.2-6.6-6.6-6.9-6.9c-0.4-0.4-0.7-0.7-1-0.7c-0.2,0-0.6,0.3-0.6,0.7v12.8c0,1.9-0.1,2.4-0.7,2.6
		c-0.3,0.1-0.7,0.1-1,0.1c-0.2,0-0.4,0.1-0.4,0.2c0,0.2,0.2,0.2,0.5,0.2c1.1,0,2.2-0.1,2.4-0.1c0.4,0,1.5,0.1,2.9,0.1
		c0.3,0,0.5,0,0.5-0.2c0-0.1-0.1-0.2-0.4-0.2c-0.4,0-0.8-0.1-1.2-0.2c-0.5-0.1-0.7-0.6-0.8-2.3l-0.2-8.6h0.1
		C-171.4,750-169,752.7-166.6,755z"/>
	<path class="st0" d="M-208.2,742.3c0.4,0,0.8,0,1,0.1c0.8,0.1,1,0.5,1.1,1.4c0.1,0.8,0.1,1.5,0.1,5.4v4.5c0,2.3,0,4.3-0.1,5.4
		c-0.1,0.7-0.2,1.3-0.7,1.4c-0.2,0-0.5,0.1-0.9,0.1c-0.3,0-0.4,0.1-0.4,0.2c0,0.2,0.2,0.3,0.5,0.3c1,0,2.6-0.1,3.1-0.1
		c0.3,0,2.2,0.1,3.7,0.1c0.3,0,0.5-0.1,0.5-0.3c0-0.1-0.1-0.2-0.3-0.2c-0.3,0-0.8,0-1.2-0.1c-0.8-0.1-0.9-0.7-1-1.4
		c-0.1-1-0.1-3-0.1-5.4v-0.4c0-0.1,0.1-0.2,0.2-0.2l2.2,0.1c0.2,0,0.4,0,0.5,0.2c0.3,0.4,1.5,2.1,2.5,3.5c1.4,1.9,2.4,3.1,3.5,3.7
		c0.6,0.4,1.3,0.5,2.7,0.5h2.4h0.1h0.1c0.5,0,1.1-0.1,1.6-0.1c0.6,0,1,0,1.3,0c0.7,0,1.5,0.1,2.6,0.1c1.1,0.1,2.4,0.1,4.1,0.1
		c0.8,0,1,0,1.2-0.6c0.1-0.4,0.3-1.9,0.3-2.4c0-0.2,0-0.5-0.2-0.5s-0.2,0.1-0.3,0.3c-0.2,0.9-0.4,1.3-1,1.6
		c-0.6,0.3-1.5,0.3-2.1,0.3c-2.3,0-2.9-0.3-3-1.8c0-0.6,0-2.5,0-3.2v-1.7c0-0.1,0-0.2,0.1-0.2c0.6,0,3.1,0,3.5,0.1
		c0.8,0,1.1,0.4,1.2,0.8c0.1,0.3,0.1,0.6,0.1,0.8c0,0.1,0,0.2,0.2,0.2s0.2-0.3,0.2-0.5c0-0.1,0-1,0.1-1.4c0.1-1.1,0.2-1.5,0.2-1.6
		c0-0.1-0.1-0.2-0.2-0.2c-0.1,0-0.2,0.1-0.4,0.3c-0.2,0.2-0.6,0.2-1.1,0.3s-3.4,0.1-3.9,0.1c-0.2,0-0.2-0.1-0.2-0.2v-5.3
		c0-0.1,0.1-0.2,0.2-0.2c0.5,0,3.1,0,3.5,0.1c1.1,0.1,1.3,0.4,1.5,0.8c0.2,0.3,0.2,0.6,0.2,0.8s0,0.3,0.2,0.3s0.3-0.3,0.3-0.4
		c0-0.2,0.1-1.2,0.1-1.4c0.1-1,0.2-1.2,0.2-1.4c0-0.1-0.1-0.2-0.2-0.2s-0.3,0.1-0.4,0.1c-0.1,0-0.5,0.1-0.9,0.1c-0.4,0-5.4,0-6.1,0
		c-0.6,0-2-0.1-3.2-0.1c-0.3,0-0.5,0-0.5,0.2c0,0.1,0.2,0.2,0.4,0.2c0.3,0,0.7,0,0.9,0.1c0.7,0.2,0.9,0.5,1,1.2c0,0.7,0,1.3,0,4.6
		v3.7c0,2,0.1,3.7,0,4.6c-0.1,0.6-0.5,1-1,1.1c-0.2,0.1-0.4,0.1-0.7,0.1c-0.2,0-0.4,0-0.7-0.1c-0.3,0-1.4-0.2-2.8-1.7
		c-1.5-1.6-3.2-3.9-5.5-6.7c2.6-2.1,3.4-3.8,3.4-5.7c0-1.7-1-3-1.7-3.5c-1.4-0.9-3.1-1.1-4.7-1.1c-0.8,0-2.7,0.1-3.6,0.1
		c-0.6,0-2.2-0.1-3.5-0.1c-0.4,0-0.6,0-0.6,0.2C-208.6,742.2-208.5,742.3-208.2,742.3z M-202.9,743.9c0-0.2,0-0.3,0.2-0.4
		c0.2-0.1,0.7-0.1,1.3-0.1c1.5,0,3.9,1.1,3.9,4.7c0,2.1-0.7,3.2-1.5,3.8c-0.5,0.3-0.8,0.4-1.8,0.4c-0.6,0-1.4-0.1-1.9-0.3
		c-0.1-0.1-0.2-0.2-0.2-0.5V743.9z"/>
</g>
<g>
	<path class="st0" d="M-190.3,718.3c0.4,0,0.8,0,1,0.1c0.8,0.1,1,0.5,1.1,1.4c0.1,0.8,0.1,1.5,0.1,5.4v4.5c0,2.3,0,4.3-0.1,5.4
		c-0.1,0.7-0.2,1.3-0.7,1.4c-0.2,0-0.5,0.1-0.9,0.1c-0.3,0-0.4,0.1-0.4,0.2c0,0.2,0.2,0.3,0.5,0.3c1,0,2.6-0.1,3.2-0.1
		c0.6,0,2.2,0.1,3.9,0.1c0.3,0,0.5-0.1,0.5-0.3c0-0.1-0.1-0.2-0.4-0.2c-0.4,0-0.9-0.1-1.3-0.1c-0.8-0.1-0.9-0.7-1-1.4
		c-0.1-1.1-0.1-3.1-0.1-5.4v-10.1c0-0.3,0.1-0.4,0.2-0.5c0.2-0.1,0.6-0.1,1-0.1c0.5,0,1.6,0.2,2.5,1c1.4,1.3,1.5,3,1.5,3.8
		c0,2.6-2,4.2-3.4,4.2c-0.5,0-0.7,0.1-0.7,0.3c0,0.1,0.2,0.2,0.3,0.2c0.1,0,0.4,0,0.5,0c3.7,0,6.3-2.6,6.3-6.2c0-1.3-0.7-2.5-1.3-3
		c-0.4-0.3-1.5-1.4-4.7-1.4c-1.2,0-2.7,0.1-3.7,0.1c-0.8,0-2.4-0.1-3.7-0.1c-0.4,0-0.6,0-0.6,0.2
		C-190.7,718.2-190.6,718.3-190.3,718.3z"/>
	<path class="st0" d="M-85.5,721c0.3,0,0.7,0,0.9,0.1c0.7,0.2,0.9,0.5,1,1.2c0,0.7,0,1.3,0,4.6v3.8c0,2,0,3.7-0.1,4.6
		c-0.1,0.6-0.2,1-0.7,1.1c-0.2,0.1-0.5,0.1-0.8,0.1s-0.4,0.1-0.4,0.2c0,0.1,0.1,0.2,0.4,0.2c0.9,0,2.3-0.1,2.8-0.1
		c0.6,0,2.2,0.1,3.4,0.1c0.2,0,0.4,0,0.4-0.2c0-0.1-0.1-0.2-0.3-0.2c-0.3,0-0.8,0-1.1-0.1c-0.5-0.1-0.7-0.5-0.8-1.1
		c-0.1-0.9-0.1-2.6-0.1-4.6v-2h0.1l0.2,0.3c0.4,0.7,4.7,5.7,5.7,6.5c1,0.8,1.7,1.3,2.9,1.4c0.5,0.1,0.9,0.1,1.6,0.1h2
		c0.4,0,0.5,0,0.5-0.2c0-0.1-0.1-0.2-0.3-0.2c-0.3,0-0.7,0-1.4-0.3c-1.1-0.5-2-1.4-3-2.3c-0.8-0.8-5.2-5.4-6-6.4
		c0.7-0.8,4-3.9,4.7-4.6c1-0.9,1.7-1.3,2.4-1.6c0.4-0.2,1-0.3,1.3-0.3c0.2,0,0.3-0.1,0.3-0.2c0-0.1-0.2-0.2-0.4-0.2
		c-0.7,0-1.9,0.1-2.6,0.1c-0.6,0-1.8-0.1-2.3-0.1c-0.3,0-0.4,0-0.4,0.2c0,0.1,0.1,0.1,0.3,0.2c0.2,0,0.3,0.2,0.3,0.4
		c0,0.4-0.5,0.9-1.1,1.6c-0.7,0.8-3.9,4-4.7,4.8h-0.1l0.3-1c0-3.3,0-3.9,0-4.6c0-0.8,0.2-1.1,0.8-1.2c0.2-0.1,0.4-0.1,0.6-0.1
		s0.3-0.1,0.3-0.2c0-0.1-0.2-0.2-0.5-0.2c-0.8,0-2.4,0.1-2.9,0.1s-1.9-0.1-3.1-0.1c-0.3,0-0.5,0.1-0.5,0.2
		C-85.9,720.9-85.7,721-85.5,721z"/>
	<path class="st0" d="M-99.4,735c2.1,1.7,4.7,2.3,7.8,2.4c1.4,0,3.1-0.1,4-0.5c0.4-0.1,0.5-0.2,0.6-0.6c0.2-0.8,0.5-2.6,0.5-2.9
		c0-0.2-0.1-0.4-0.3-0.4c-0.2,0-0.2,0.1-0.3,0.4c-0.1,0.4-0.4,1-0.8,1.4c-0.9,0.9-2,1.1-4,1.1c-3,0-7-2.5-7-7.6
		c0-2.1,0.4-4.2,2.1-5.6c1-0.8,2.2-1.2,4.2-1.2s3.5,0.6,4.3,1.3c0.6,0.6,0.9,1.3,0.9,2c0,0.3,0,0.5,0.2,0.5c0.2,0,0.3-0.2,0.3-0.5
		c0-0.4,0-1.6,0.1-2.3c0-0.8,0.1-1,0.1-1.2s0-0.3-0.3-0.3c-0.6-0.1-1.4-0.3-2.2-0.4c-1.1-0.1-1.9-0.2-3.3-0.2
		c-3.3,0-5.5,0.9-7.1,2.3c-2.1,1.9-2.6,4.4-2.6,5.9C-102.2,730.7-101.6,733.1-99.4,735z"/>
	<path class="st0" d="M-103.6,728.5c0-5-3.6-8.1-9.2-8.1c-6.8,0-9.4,4.8-9.4,8.5c0,3.8,2.7,8.4,9.2,8.4
		C-107.2,737.3-103.6,733.5-103.6,728.5z M-112.1,736.3c-4.3,0-6.8-3.6-6.8-8c0-5.4,2.9-6.7,5.4-6.7c3.6,0,6.5,2.9,6.5,7.7
		C-107,735.4-110.5,736.1-112.1,736.3z"/>
	<path class="st0" d="M-123.7,728.6c0-2.6-1-4.4-2.1-5.5c-2.4-2.5-6.2-2.5-9-2.5c-1.3,0-2.9,0.1-3.6,0.1c-0.6,0-2-0.1-3.2-0.1
		c-0.3,0-0.5,0-0.5,0.2c0,0.1,0.2,0.2,0.4,0.2c0.3,0,0.7,0,0.9,0.1c0.7,0.2,0.9,0.5,1,1.2c0,0.7,0,1.3,0,4.6l-0.1,3.9
		c0,2,0,3.7-0.1,4.6c-0.1,0.6-0.2,1-0.7,1.1c-0.2,0.1-0.5,0.1-0.8,0.1s-0.4,0.1-0.4,0.2c0,0.1,0.1,0.2,0.4,0.2
		c0.5,0,1.1-0.1,1.6-0.1c0.6,0,1,0,1.3,0c0.6,0,1.4,0,2.3,0.1c0.9,0,1.9,0.1,2.7,0.1c4.1,0,6.5-1.5,7.5-2.5
		C-124.9,733.4-123.7,731.3-123.7,728.6z M-128.6,734.6c-1.4,1.1-2.9,1.5-4.9,1.5c-1.7,0-2.6-0.5-2.9-0.9c-0.2-0.2-0.3-1-0.3-1.5
		c-0.1-0.5-0.1-2.1-0.1-4.4v-2.8c0-1.7,0-3.5,0-4.2c0-0.2,0.1-0.3,0.3-0.4c0.2-0.1,0.9-0.2,1.4-0.2c1.8,0,4.2,0.3,6.3,2.1
		c1,0.9,2.1,2.7,2.1,5.4C-126.7,731.5-127.2,733.4-128.6,734.6z"/>
	<path class="st0" d="M-160.6,721c0.3,0,0.7,0,0.9,0.1c0.7,0.2,0.9,0.5,1,1.2c0,0.7,0,1.3,0,4.6l-0.1,3.9c0,2,0,3.7-0.1,4.6
		c-0.1,0.6-0.2,1-0.7,1.1c-0.2,0.1-0.5,0.1-0.8,0.1s-0.4,0.1-0.4,0.2c0,0.1,0.1,0.2,0.4,0.2c0.5,0,1.1-0.1,1.6-0.1c0.6,0,1,0,1.3,0
		c0.6,0,1.4,0,2.3,0.1c0.9,0,1.9,0.1,2.7,0.1c4.1,0,6.5-1.5,7.5-2.5c1.2-1.2,2.4-3.3,2.4-6c0-2.6-1-4.4-2.1-5.5
		c-2.4-2.5-6.2-2.5-9-2.5c-1.3,0-2.9,0.1-3.6,0.1c-0.6,0-2-0.1-3.2-0.1c-0.3,0-0.5,0-0.5,0.2C-161,720.9-160.8,721-160.6,721z
		 M-155.7,726.5c0-1.7,0-3.5,0-4.2c0-0.2,0.1-0.3,0.3-0.4c0.2-0.1,0.9-0.2,1.4-0.2c1.8,0,4.2,0.3,6.3,2.1c1,0.9,2.1,2.7,2.1,5.4
		c0,2.3-0.5,4.2-1.9,5.4c-1.4,1.1-2.9,1.5-4.9,1.5c-1.7,0-2.6-0.5-2.9-0.9c-0.2-0.2-0.3-1-0.3-1.5c-0.1-0.5-0.1-2.1-0.1-4.4h0V726.5
		z"/>
	<path class="st0" d="M-177.9,736.6c-0.2,0-0.5,0-0.7,0c-0.2,0-0.3,0.1-0.3,0.2c0,0.1,0.1,0.2,0.4,0.2c1.2,0,2.4-0.1,2.6-0.1
		c0.7,0,1.8,0.1,2.5,0.1c0.3,0,0.4,0,0.4-0.2c0-0.1,0-0.2-0.3-0.2h-0.3c-0.7,0-0.9-0.2-0.9-0.6c0-0.2,0.1-0.8,0.3-1.3l1.2-2.9
		c0-0.2,0.1-0.2,0.2-0.2l5.3-0.1c0.1,0,0.1,0.1,0.2,0.2l1.7,4.3c0.1,0.3,0,0.5-0.2,0.5c-0.2,0-0.3,0.1-0.3,0.2
		c0,0.2,0.3,0.2,0.7,0.2c1.9,0.1,3.5,0.1,4.3,0.1c0.9,0,1,0,1-0.2c0-0.1-0.1-0.2-0.3-0.2s-0.5,0-0.8-0.1c-0.4-0.1-1-0.3-1.9-2.3
		c-1.4-3.3-5.2-12.1-5.7-13.3c-0.3-0.5-0.4-0.7-0.7-0.7c-0.3,0-0.4,0.3-0.7,0.9l-5.8,13.6C-176.5,735.8-176.9,736.4-177.9,736.6z
		 M-172.4,730.3l2.2-5.5c0-0.1,0-0.2,0.1-0.2c0,0,0.1,0.1,0.1,0.2l2.1,5.5c0,0,0,0.1-0.1,0.1l-4.3,0.1
		C-172.4,730.5-172.5,730.4-172.4,730.3z"/>
</g>
<polygon class="st0" points="-67,702.5 -103.9,702.5 -105.9,704 -53.3,704 "/>
<polygon class="st0" points="-205.2,704 -150.6,704 -152.6,702.5 -191.5,702.5 "/>
</svg>
